<mxfile host="app.diagrams.net" modified="2024-05-26T03:54:56.434Z" agent="Mozilla/5.0 (Windows NT 10.0; Win64; x64) AppleWebKit/537.36 (KHTML, like Gecko) Chrome/125.0.0.0 Safari/537.36" etag="zzd-63NRD3gOj0Dypgdv" version="24.4.8" type="device">
  <diagram id="C5RBs43oDa-KdzZeNtuy" name="Page-1">
    <mxGraphModel dx="1506" dy="716" grid="1" gridSize="10" guides="1" tooltips="1" connect="1" arrows="1" fold="1" page="1" pageScale="1" pageWidth="1654" pageHeight="1169" math="0" shadow="0">
      <root>
        <mxCell id="WIyWlLk6GJQsqaUBKTNV-0" />
        <mxCell id="WIyWlLk6GJQsqaUBKTNV-1" parent="WIyWlLk6GJQsqaUBKTNV-0" />
        <mxCell id="41yFg0ceTBaFfp9Jz5B2-131" value="" style="edgeStyle=orthogonalEdgeStyle;rounded=1;orthogonalLoop=1;jettySize=auto;html=1;endArrow=block;endFill=0;fontSize=9;textShadow=0;" edge="1" parent="WIyWlLk6GJQsqaUBKTNV-1" source="41yFg0ceTBaFfp9Jz5B2-0" target="41yFg0ceTBaFfp9Jz5B2-130">
          <mxGeometry relative="1" as="geometry" />
        </mxCell>
        <mxCell id="41yFg0ceTBaFfp9Jz5B2-0" value="&lt;font style=&quot;font-size: 9px;&quot;&gt;Inicio&lt;/font&gt;" style="ellipse;whiteSpace=wrap;html=1;rounded=1;fontSize=9;fillColor=#dae8fc;strokeColor=#6c8ebf;textShadow=0;" vertex="1" parent="WIyWlLk6GJQsqaUBKTNV-1">
          <mxGeometry x="170" y="75" width="70" height="20" as="geometry" />
        </mxCell>
        <mxCell id="41yFg0ceTBaFfp9Jz5B2-114" value="" style="edgeStyle=orthogonalEdgeStyle;rounded=1;orthogonalLoop=1;jettySize=auto;html=1;endArrow=block;endFill=0;" edge="1" parent="WIyWlLk6GJQsqaUBKTNV-1" source="41yFg0ceTBaFfp9Jz5B2-20" target="41yFg0ceTBaFfp9Jz5B2-113">
          <mxGeometry relative="1" as="geometry" />
        </mxCell>
        <mxCell id="41yFg0ceTBaFfp9Jz5B2-20" value="&lt;font style=&quot;font-size: 9px;&quot;&gt;Tarea 1: Detectar linea&lt;/font&gt;" style="rounded=1;whiteSpace=wrap;html=1;fontSize=9;fillColor=#dae8fc;strokeColor=#6c8ebf;" vertex="1" parent="WIyWlLk6GJQsqaUBKTNV-1">
          <mxGeometry x="829" y="75" width="60" height="30" as="geometry" />
        </mxCell>
        <mxCell id="41yFg0ceTBaFfp9Jz5B2-27" value="" style="edgeStyle=orthogonalEdgeStyle;rounded=1;orthogonalLoop=1;jettySize=auto;html=1;endArrow=block;endFill=0;fontSize=9;" edge="1" parent="WIyWlLk6GJQsqaUBKTNV-1" source="41yFg0ceTBaFfp9Jz5B2-22" target="41yFg0ceTBaFfp9Jz5B2-26">
          <mxGeometry relative="1" as="geometry" />
        </mxCell>
        <mxCell id="41yFg0ceTBaFfp9Jz5B2-22" value="&lt;font style=&quot;font-size: 9px;&quot;&gt;Leer los detectores de lÃ­nea&lt;/font&gt;" style="whiteSpace=wrap;html=1;rounded=1;fontSize=9;" vertex="1" parent="WIyWlLk6GJQsqaUBKTNV-1">
          <mxGeometry x="969" y="155" width="80" height="40" as="geometry" />
        </mxCell>
        <mxCell id="41yFg0ceTBaFfp9Jz5B2-29" value="" style="edgeStyle=orthogonalEdgeStyle;rounded=1;orthogonalLoop=1;jettySize=auto;html=1;endArrow=block;endFill=0;fontSize=9;" edge="1" parent="WIyWlLk6GJQsqaUBKTNV-1" source="41yFg0ceTBaFfp9Jz5B2-26" target="41yFg0ceTBaFfp9Jz5B2-28">
          <mxGeometry relative="1" as="geometry" />
        </mxCell>
        <mxCell id="41yFg0ceTBaFfp9Jz5B2-35" value="No" style="edgeLabel;html=1;align=center;verticalAlign=middle;resizable=0;points=[];rounded=1;fontSize=9;" vertex="1" connectable="0" parent="41yFg0ceTBaFfp9Jz5B2-29">
          <mxGeometry x="-0.3318" relative="1" as="geometry">
            <mxPoint as="offset" />
          </mxGeometry>
        </mxCell>
        <mxCell id="41yFg0ceTBaFfp9Jz5B2-33" value="" style="edgeStyle=orthogonalEdgeStyle;rounded=1;orthogonalLoop=1;jettySize=auto;html=1;endArrow=block;endFill=0;fontSize=9;" edge="1" parent="WIyWlLk6GJQsqaUBKTNV-1" source="41yFg0ceTBaFfp9Jz5B2-26" target="41yFg0ceTBaFfp9Jz5B2-32">
          <mxGeometry relative="1" as="geometry" />
        </mxCell>
        <mxCell id="41yFg0ceTBaFfp9Jz5B2-34" value="Si" style="edgeLabel;html=1;align=center;verticalAlign=middle;resizable=0;points=[];rounded=1;fontSize=9;" vertex="1" connectable="0" parent="41yFg0ceTBaFfp9Jz5B2-33">
          <mxGeometry x="-0.0546" relative="1" as="geometry">
            <mxPoint as="offset" />
          </mxGeometry>
        </mxCell>
        <mxCell id="41yFg0ceTBaFfp9Jz5B2-26" value="&lt;font style=&quot;font-size: 9px;&quot;&gt;if &lt;br style=&quot;font-size: 9px;&quot;&gt;(det_izq = 0) &amp;amp;&amp;amp; det_der =0&lt;/font&gt;" style="rhombus;whiteSpace=wrap;html=1;rounded=1;fontSize=9;" vertex="1" parent="WIyWlLk6GJQsqaUBKTNV-1">
          <mxGeometry x="969" y="220" width="80" height="80" as="geometry" />
        </mxCell>
        <mxCell id="41yFg0ceTBaFfp9Jz5B2-31" value="" style="edgeStyle=orthogonalEdgeStyle;rounded=1;orthogonalLoop=1;jettySize=auto;html=1;endArrow=block;endFill=0;fontSize=9;" edge="1" parent="WIyWlLk6GJQsqaUBKTNV-1" source="41yFg0ceTBaFfp9Jz5B2-28" target="41yFg0ceTBaFfp9Jz5B2-30">
          <mxGeometry relative="1" as="geometry" />
        </mxCell>
        <mxCell id="41yFg0ceTBaFfp9Jz5B2-36" value="No" style="edgeLabel;html=1;align=center;verticalAlign=middle;resizable=0;points=[];rounded=1;fontSize=9;" vertex="1" connectable="0" parent="41yFg0ceTBaFfp9Jz5B2-31">
          <mxGeometry x="-0.055" y="-1" relative="1" as="geometry">
            <mxPoint x="1" y="-9" as="offset" />
          </mxGeometry>
        </mxCell>
        <mxCell id="41yFg0ceTBaFfp9Jz5B2-38" value="" style="edgeStyle=orthogonalEdgeStyle;rounded=1;orthogonalLoop=1;jettySize=auto;html=1;endArrow=block;endFill=0;fontSize=9;" edge="1" parent="WIyWlLk6GJQsqaUBKTNV-1" source="41yFg0ceTBaFfp9Jz5B2-28" target="41yFg0ceTBaFfp9Jz5B2-37">
          <mxGeometry relative="1" as="geometry" />
        </mxCell>
        <mxCell id="41yFg0ceTBaFfp9Jz5B2-41" value="Si" style="edgeLabel;html=1;align=center;verticalAlign=middle;resizable=0;points=[];rounded=1;fontSize=9;" vertex="1" connectable="0" parent="41yFg0ceTBaFfp9Jz5B2-38">
          <mxGeometry x="-0.1213" relative="1" as="geometry">
            <mxPoint as="offset" />
          </mxGeometry>
        </mxCell>
        <mxCell id="41yFg0ceTBaFfp9Jz5B2-28" value="&lt;font style=&quot;font-size: 9px;&quot;&gt;else if &lt;br style=&quot;font-size: 9px;&quot;&gt;(det_izq = 1) &amp;amp;&amp;amp; det_der =0&lt;/font&gt;" style="rhombus;whiteSpace=wrap;html=1;rounded=1;fontSize=9;" vertex="1" parent="WIyWlLk6GJQsqaUBKTNV-1">
          <mxGeometry x="969" y="345" width="80" height="80" as="geometry" />
        </mxCell>
        <mxCell id="41yFg0ceTBaFfp9Jz5B2-40" value="" style="edgeStyle=orthogonalEdgeStyle;rounded=1;orthogonalLoop=1;jettySize=auto;html=1;endArrow=block;endFill=0;fontSize=9;" edge="1" parent="WIyWlLk6GJQsqaUBKTNV-1" source="41yFg0ceTBaFfp9Jz5B2-30" target="41yFg0ceTBaFfp9Jz5B2-39">
          <mxGeometry relative="1" as="geometry" />
        </mxCell>
        <mxCell id="41yFg0ceTBaFfp9Jz5B2-42" value="Si" style="edgeLabel;html=1;align=center;verticalAlign=middle;resizable=0;points=[];rounded=1;fontSize=9;" vertex="1" connectable="0" parent="41yFg0ceTBaFfp9Jz5B2-40">
          <mxGeometry x="-0.0546" y="1" relative="1" as="geometry">
            <mxPoint as="offset" />
          </mxGeometry>
        </mxCell>
        <mxCell id="41yFg0ceTBaFfp9Jz5B2-44" value="" style="edgeStyle=orthogonalEdgeStyle;rounded=1;orthogonalLoop=1;jettySize=auto;html=1;endArrow=block;endFill=0;fontSize=9;" edge="1" parent="WIyWlLk6GJQsqaUBKTNV-1" source="41yFg0ceTBaFfp9Jz5B2-30" target="41yFg0ceTBaFfp9Jz5B2-43">
          <mxGeometry relative="1" as="geometry" />
        </mxCell>
        <mxCell id="41yFg0ceTBaFfp9Jz5B2-48" value="No" style="edgeLabel;html=1;align=center;verticalAlign=middle;resizable=0;points=[];rounded=1;fontSize=9;" vertex="1" connectable="0" parent="41yFg0ceTBaFfp9Jz5B2-44">
          <mxGeometry x="-0.0797" y="-1" relative="1" as="geometry">
            <mxPoint as="offset" />
          </mxGeometry>
        </mxCell>
        <mxCell id="41yFg0ceTBaFfp9Jz5B2-30" value="&lt;font style=&quot;font-size: 9px;&quot;&gt;else if &lt;br style=&quot;font-size: 9px;&quot;&gt;(det_izq = 0) &amp;amp;&amp;amp; det_der =1&lt;/font&gt;" style="rhombus;whiteSpace=wrap;html=1;rounded=1;fontSize=9;" vertex="1" parent="WIyWlLk6GJQsqaUBKTNV-1">
          <mxGeometry x="969" y="465" width="80" height="80" as="geometry" />
        </mxCell>
        <mxCell id="41yFg0ceTBaFfp9Jz5B2-61" style="edgeStyle=orthogonalEdgeStyle;rounded=1;orthogonalLoop=1;jettySize=auto;html=1;exitX=1;exitY=0.5;exitDx=0;exitDy=0;endArrow=block;endFill=0;" edge="1" parent="WIyWlLk6GJQsqaUBKTNV-1" source="41yFg0ceTBaFfp9Jz5B2-32">
          <mxGeometry relative="1" as="geometry">
            <mxPoint x="1019" y="695" as="targetPoint" />
            <Array as="points">
              <mxPoint x="1199" y="260" />
              <mxPoint x="1199" y="695" />
            </Array>
          </mxGeometry>
        </mxCell>
        <mxCell id="41yFg0ceTBaFfp9Jz5B2-32" value="direccion = A" style="whiteSpace=wrap;html=1;rounded=1;fontSize=9;" vertex="1" parent="WIyWlLk6GJQsqaUBKTNV-1">
          <mxGeometry x="1089" y="246.25" width="70" height="27.5" as="geometry" />
        </mxCell>
        <mxCell id="41yFg0ceTBaFfp9Jz5B2-62" style="edgeStyle=orthogonalEdgeStyle;rounded=1;orthogonalLoop=1;jettySize=auto;html=1;exitX=1;exitY=0.5;exitDx=0;exitDy=0;endArrow=none;endFill=0;" edge="1" parent="WIyWlLk6GJQsqaUBKTNV-1" source="41yFg0ceTBaFfp9Jz5B2-37">
          <mxGeometry relative="1" as="geometry">
            <mxPoint x="1199" y="385" as="targetPoint" />
          </mxGeometry>
        </mxCell>
        <mxCell id="41yFg0ceTBaFfp9Jz5B2-37" value="direccion = I" style="whiteSpace=wrap;html=1;rounded=1;fontSize=9;" vertex="1" parent="WIyWlLk6GJQsqaUBKTNV-1">
          <mxGeometry x="1089" y="368.75" width="70" height="32.5" as="geometry" />
        </mxCell>
        <mxCell id="41yFg0ceTBaFfp9Jz5B2-63" style="edgeStyle=orthogonalEdgeStyle;rounded=1;orthogonalLoop=1;jettySize=auto;html=1;exitX=1;exitY=0.5;exitDx=0;exitDy=0;endArrow=none;endFill=0;" edge="1" parent="WIyWlLk6GJQsqaUBKTNV-1" source="41yFg0ceTBaFfp9Jz5B2-39">
          <mxGeometry relative="1" as="geometry">
            <mxPoint x="1199" y="505" as="targetPoint" />
          </mxGeometry>
        </mxCell>
        <mxCell id="41yFg0ceTBaFfp9Jz5B2-39" value="direccion = D" style="rounded=1;whiteSpace=wrap;html=1;fontSize=9;" vertex="1" parent="WIyWlLk6GJQsqaUBKTNV-1">
          <mxGeometry x="1089" y="490" width="70" height="30" as="geometry" />
        </mxCell>
        <mxCell id="41yFg0ceTBaFfp9Jz5B2-46" value="" style="edgeStyle=orthogonalEdgeStyle;rounded=1;orthogonalLoop=1;jettySize=auto;html=1;endArrow=block;endFill=0;fontSize=9;" edge="1" parent="WIyWlLk6GJQsqaUBKTNV-1" source="41yFg0ceTBaFfp9Jz5B2-43" target="41yFg0ceTBaFfp9Jz5B2-45">
          <mxGeometry relative="1" as="geometry" />
        </mxCell>
        <mxCell id="41yFg0ceTBaFfp9Jz5B2-47" value="Si" style="edgeLabel;html=1;align=center;verticalAlign=middle;resizable=0;points=[];rounded=1;fontSize=9;" vertex="1" connectable="0" parent="41yFg0ceTBaFfp9Jz5B2-46">
          <mxGeometry x="-0.0546" y="-2" relative="1" as="geometry">
            <mxPoint y="-2" as="offset" />
          </mxGeometry>
        </mxCell>
        <mxCell id="41yFg0ceTBaFfp9Jz5B2-124" value="" style="edgeStyle=orthogonalEdgeStyle;rounded=1;orthogonalLoop=1;jettySize=auto;html=1;endArrow=block;endFill=0;" edge="1" parent="WIyWlLk6GJQsqaUBKTNV-1" source="41yFg0ceTBaFfp9Jz5B2-43" target="41yFg0ceTBaFfp9Jz5B2-123">
          <mxGeometry relative="1" as="geometry" />
        </mxCell>
        <mxCell id="41yFg0ceTBaFfp9Jz5B2-125" value="&lt;font style=&quot;font-size: 9px;&quot;&gt;No&lt;/font&gt;" style="edgeLabel;html=1;align=center;verticalAlign=middle;resizable=0;points=[];rounded=1;" vertex="1" connectable="0" parent="41yFg0ceTBaFfp9Jz5B2-124">
          <mxGeometry x="-0.297" y="1" relative="1" as="geometry">
            <mxPoint as="offset" />
          </mxGeometry>
        </mxCell>
        <mxCell id="41yFg0ceTBaFfp9Jz5B2-43" value="&lt;font style=&quot;font-size: 9px;&quot;&gt;else if &lt;br&gt;(det_izq = 1) &amp;amp;&amp;amp; det_der =1&lt;/font&gt;" style="rhombus;whiteSpace=wrap;html=1;rounded=1;" vertex="1" parent="WIyWlLk6GJQsqaUBKTNV-1">
          <mxGeometry x="969" y="595" width="80" height="80" as="geometry" />
        </mxCell>
        <mxCell id="41yFg0ceTBaFfp9Jz5B2-64" style="edgeStyle=orthogonalEdgeStyle;rounded=1;orthogonalLoop=1;jettySize=auto;html=1;exitX=1;exitY=0.5;exitDx=0;exitDy=0;endArrow=none;endFill=0;" edge="1" parent="WIyWlLk6GJQsqaUBKTNV-1" source="41yFg0ceTBaFfp9Jz5B2-45">
          <mxGeometry relative="1" as="geometry">
            <mxPoint x="1199" y="635" as="targetPoint" />
          </mxGeometry>
        </mxCell>
        <mxCell id="41yFg0ceTBaFfp9Jz5B2-45" value="direccion = F" style="whiteSpace=wrap;html=1;rounded=1;fontSize=9;" vertex="1" parent="WIyWlLk6GJQsqaUBKTNV-1">
          <mxGeometry x="1089" y="620" width="60" height="30" as="geometry" />
        </mxCell>
        <mxCell id="41yFg0ceTBaFfp9Jz5B2-121" style="edgeStyle=orthogonalEdgeStyle;rounded=1;orthogonalLoop=1;jettySize=auto;html=1;entryX=0;entryY=0.5;entryDx=0;entryDy=0;endArrow=block;endFill=0;" edge="1" parent="WIyWlLk6GJQsqaUBKTNV-1" source="41yFg0ceTBaFfp9Jz5B2-57" target="41yFg0ceTBaFfp9Jz5B2-113">
          <mxGeometry relative="1" as="geometry">
            <mxPoint x="799" y="165" as="targetPoint" />
            <Array as="points">
              <mxPoint x="800" y="270" />
              <mxPoint x="800" y="175" />
            </Array>
          </mxGeometry>
        </mxCell>
        <mxCell id="41yFg0ceTBaFfp9Jz5B2-57" value="&lt;font style=&quot;font-size: 9px;&quot;&gt;Timer A&lt;/font&gt;" style="whiteSpace=wrap;html=1;rounded=1;" vertex="1" parent="WIyWlLk6GJQsqaUBKTNV-1">
          <mxGeometry x="834" y="255" width="50" height="30" as="geometry" />
        </mxCell>
        <mxCell id="41yFg0ceTBaFfp9Jz5B2-68" value="" style="edgeStyle=orthogonalEdgeStyle;rounded=1;orthogonalLoop=1;jettySize=auto;html=1;endArrow=block;endFill=0;fontSize=9;" edge="1" parent="WIyWlLk6GJQsqaUBKTNV-1" source="41yFg0ceTBaFfp9Jz5B2-69" target="41yFg0ceTBaFfp9Jz5B2-71">
          <mxGeometry relative="1" as="geometry" />
        </mxCell>
        <mxCell id="41yFg0ceTBaFfp9Jz5B2-69" value="&lt;font style=&quot;font-size: 9px;&quot;&gt;Tarea 2: Control baterÃ­a&lt;/font&gt;" style="rounded=1;whiteSpace=wrap;html=1;fontSize=9;fillColor=#dae8fc;strokeColor=#6c8ebf;" vertex="1" parent="WIyWlLk6GJQsqaUBKTNV-1">
          <mxGeometry x="1395" y="75" width="70" height="30" as="geometry" />
        </mxCell>
        <mxCell id="41yFg0ceTBaFfp9Jz5B2-105" value="" style="edgeStyle=orthogonalEdgeStyle;rounded=1;orthogonalLoop=1;jettySize=auto;html=1;endArrow=block;endFill=0;" edge="1" parent="WIyWlLk6GJQsqaUBKTNV-1" source="41yFg0ceTBaFfp9Jz5B2-71" target="41yFg0ceTBaFfp9Jz5B2-104">
          <mxGeometry relative="1" as="geometry" />
        </mxCell>
        <mxCell id="41yFg0ceTBaFfp9Jz5B2-71" value="&lt;font style=&quot;font-size: 9px;&quot;&gt;Leer voltaje analÃ³gico&lt;/font&gt;" style="whiteSpace=wrap;html=1;rounded=1;fontSize=9;" vertex="1" parent="WIyWlLk6GJQsqaUBKTNV-1">
          <mxGeometry x="1390" y="135" width="80" height="40" as="geometry" />
        </mxCell>
        <mxCell id="41yFg0ceTBaFfp9Jz5B2-77" value="" style="edgeStyle=orthogonalEdgeStyle;rounded=1;orthogonalLoop=1;jettySize=auto;html=1;endArrow=block;endFill=0;fontSize=9;" edge="1" parent="WIyWlLk6GJQsqaUBKTNV-1" source="41yFg0ceTBaFfp9Jz5B2-81" target="41yFg0ceTBaFfp9Jz5B2-86">
          <mxGeometry relative="1" as="geometry" />
        </mxCell>
        <mxCell id="41yFg0ceTBaFfp9Jz5B2-78" value="No" style="edgeLabel;html=1;align=center;verticalAlign=middle;resizable=0;points=[];rounded=1;fontSize=9;" vertex="1" connectable="0" parent="41yFg0ceTBaFfp9Jz5B2-77">
          <mxGeometry x="-0.055" y="-1" relative="1" as="geometry">
            <mxPoint x="1" y="-9" as="offset" />
          </mxGeometry>
        </mxCell>
        <mxCell id="41yFg0ceTBaFfp9Jz5B2-79" value="" style="edgeStyle=orthogonalEdgeStyle;rounded=1;orthogonalLoop=1;jettySize=auto;html=1;endArrow=block;endFill=0;fontSize=9;" edge="1" parent="WIyWlLk6GJQsqaUBKTNV-1" source="41yFg0ceTBaFfp9Jz5B2-81" target="41yFg0ceTBaFfp9Jz5B2-90">
          <mxGeometry relative="1" as="geometry" />
        </mxCell>
        <mxCell id="41yFg0ceTBaFfp9Jz5B2-80" value="Si" style="edgeLabel;html=1;align=center;verticalAlign=middle;resizable=0;points=[];rounded=1;fontSize=9;" vertex="1" connectable="0" parent="41yFg0ceTBaFfp9Jz5B2-79">
          <mxGeometry x="-0.1213" relative="1" as="geometry">
            <mxPoint as="offset" />
          </mxGeometry>
        </mxCell>
        <mxCell id="41yFg0ceTBaFfp9Jz5B2-81" value="if&lt;br&gt;&amp;nbsp;nivel_bat_dig&amp;nbsp;&lt;br&gt;&amp;lt; 3 V" style="rhombus;whiteSpace=wrap;html=1;rounded=1;fontSize=9;" vertex="1" parent="WIyWlLk6GJQsqaUBKTNV-1">
          <mxGeometry x="1390" y="285" width="80" height="80" as="geometry" />
        </mxCell>
        <mxCell id="41yFg0ceTBaFfp9Jz5B2-82" value="" style="edgeStyle=orthogonalEdgeStyle;rounded=1;orthogonalLoop=1;jettySize=auto;html=1;endArrow=block;endFill=0;fontSize=9;" edge="1" parent="WIyWlLk6GJQsqaUBKTNV-1" source="41yFg0ceTBaFfp9Jz5B2-86" target="41yFg0ceTBaFfp9Jz5B2-92">
          <mxGeometry relative="1" as="geometry" />
        </mxCell>
        <mxCell id="41yFg0ceTBaFfp9Jz5B2-83" value="Si" style="edgeLabel;html=1;align=center;verticalAlign=middle;resizable=0;points=[];rounded=1;fontSize=9;" vertex="1" connectable="0" parent="41yFg0ceTBaFfp9Jz5B2-82">
          <mxGeometry x="-0.0546" y="1" relative="1" as="geometry">
            <mxPoint as="offset" />
          </mxGeometry>
        </mxCell>
        <mxCell id="41yFg0ceTBaFfp9Jz5B2-84" value="" style="edgeStyle=orthogonalEdgeStyle;rounded=1;orthogonalLoop=1;jettySize=auto;html=1;endArrow=block;endFill=0;fontSize=9;entryX=0.5;entryY=0;entryDx=0;entryDy=0;" edge="1" parent="WIyWlLk6GJQsqaUBKTNV-1" source="41yFg0ceTBaFfp9Jz5B2-86" target="41yFg0ceTBaFfp9Jz5B2-101">
          <mxGeometry relative="1" as="geometry">
            <mxPoint x="1430" y="525" as="targetPoint" />
          </mxGeometry>
        </mxCell>
        <mxCell id="41yFg0ceTBaFfp9Jz5B2-85" value="No" style="edgeLabel;html=1;align=center;verticalAlign=middle;resizable=0;points=[];rounded=1;fontSize=9;" vertex="1" connectable="0" parent="41yFg0ceTBaFfp9Jz5B2-84">
          <mxGeometry x="-0.0797" y="-1" relative="1" as="geometry">
            <mxPoint as="offset" />
          </mxGeometry>
        </mxCell>
        <mxCell id="41yFg0ceTBaFfp9Jz5B2-86" value="else if&lt;br&gt;nivel_bat_dig&lt;br&gt;&amp;gt; 3" style="rhombus;whiteSpace=wrap;html=1;rounded=1;fontSize=9;" vertex="1" parent="WIyWlLk6GJQsqaUBKTNV-1">
          <mxGeometry x="1390" y="399" width="80" height="80" as="geometry" />
        </mxCell>
        <mxCell id="41yFg0ceTBaFfp9Jz5B2-87" style="edgeStyle=orthogonalEdgeStyle;rounded=1;orthogonalLoop=1;jettySize=auto;html=1;endArrow=block;endFill=0;exitX=1;exitY=0.5;exitDx=0;exitDy=0;" edge="1" parent="WIyWlLk6GJQsqaUBKTNV-1" source="41yFg0ceTBaFfp9Jz5B2-90">
          <mxGeometry relative="1" as="geometry">
            <mxPoint x="1440" y="505" as="targetPoint" />
            <Array as="points">
              <mxPoint x="1620" y="325" />
              <mxPoint x="1620" y="505" />
              <mxPoint x="1440" y="505" />
            </Array>
            <mxPoint x="1620" y="335" as="sourcePoint" />
          </mxGeometry>
        </mxCell>
        <mxCell id="41yFg0ceTBaFfp9Jz5B2-90" value="alerta = true" style="whiteSpace=wrap;html=1;rounded=1;fontSize=9;" vertex="1" parent="WIyWlLk6GJQsqaUBKTNV-1">
          <mxGeometry x="1510" y="308.75" width="70" height="32.5" as="geometry" />
        </mxCell>
        <mxCell id="41yFg0ceTBaFfp9Jz5B2-91" style="edgeStyle=orthogonalEdgeStyle;rounded=1;orthogonalLoop=1;jettySize=auto;html=1;exitX=1;exitY=0.5;exitDx=0;exitDy=0;endArrow=none;endFill=0;" edge="1" parent="WIyWlLk6GJQsqaUBKTNV-1" source="41yFg0ceTBaFfp9Jz5B2-92">
          <mxGeometry relative="1" as="geometry">
            <mxPoint x="1620" y="485" as="targetPoint" />
          </mxGeometry>
        </mxCell>
        <mxCell id="41yFg0ceTBaFfp9Jz5B2-92" value="alerta = false" style="rounded=1;whiteSpace=wrap;html=1;fontSize=9;" vertex="1" parent="WIyWlLk6GJQsqaUBKTNV-1">
          <mxGeometry x="1510" y="424" width="70" height="30" as="geometry" />
        </mxCell>
        <mxCell id="41yFg0ceTBaFfp9Jz5B2-100" value="" style="edgeStyle=orthogonalEdgeStyle;rounded=1;orthogonalLoop=1;jettySize=auto;html=1;entryX=0;entryY=0.5;entryDx=0;entryDy=0;endArrow=block;endFill=0;" edge="1" parent="WIyWlLk6GJQsqaUBKTNV-1" source="41yFg0ceTBaFfp9Jz5B2-101" target="41yFg0ceTBaFfp9Jz5B2-71">
          <mxGeometry relative="1" as="geometry">
            <mxPoint x="1370" y="155" as="targetPoint" />
            <Array as="points">
              <mxPoint x="1430" y="585" />
              <mxPoint x="1360" y="585" />
              <mxPoint x="1360" y="155" />
            </Array>
          </mxGeometry>
        </mxCell>
        <mxCell id="41yFg0ceTBaFfp9Jz5B2-101" value="&lt;font style=&quot;font-size: 9px;&quot;&gt;Timer B&lt;/font&gt;" style="whiteSpace=wrap;html=1;rounded=1;" vertex="1" parent="WIyWlLk6GJQsqaUBKTNV-1">
          <mxGeometry x="1405" y="535" width="50" height="30" as="geometry" />
        </mxCell>
        <mxCell id="41yFg0ceTBaFfp9Jz5B2-106" value="" style="edgeStyle=orthogonalEdgeStyle;rounded=1;orthogonalLoop=1;jettySize=auto;html=1;endArrow=block;endFill=0;" edge="1" parent="WIyWlLk6GJQsqaUBKTNV-1" source="41yFg0ceTBaFfp9Jz5B2-104" target="41yFg0ceTBaFfp9Jz5B2-81">
          <mxGeometry relative="1" as="geometry" />
        </mxCell>
        <mxCell id="41yFg0ceTBaFfp9Jz5B2-104" value="&lt;font style=&quot;font-size: 9px;&quot;&gt;Conversion A-D&lt;/font&gt;" style="whiteSpace=wrap;html=1;rounded=1;fontSize=9;" vertex="1" parent="WIyWlLk6GJQsqaUBKTNV-1">
          <mxGeometry x="1390" y="213.75" width="80" height="40" as="geometry" />
        </mxCell>
        <mxCell id="41yFg0ceTBaFfp9Jz5B2-146" value="" style="edgeStyle=orthogonalEdgeStyle;rounded=1;orthogonalLoop=1;jettySize=auto;html=1;fontSize=9;endArrow=block;endFill=0;textShadow=0;" edge="1" parent="WIyWlLk6GJQsqaUBKTNV-1" source="41yFg0ceTBaFfp9Jz5B2-107" target="41yFg0ceTBaFfp9Jz5B2-145">
          <mxGeometry relative="1" as="geometry" />
        </mxCell>
        <mxCell id="41yFg0ceTBaFfp9Jz5B2-107" value="Enciende led1" style="whiteSpace=wrap;html=1;rounded=1;fontSize=9;textShadow=0;" vertex="1" parent="WIyWlLk6GJQsqaUBKTNV-1">
          <mxGeometry x="300" y="153.12" width="70" height="33.75" as="geometry" />
        </mxCell>
        <mxCell id="41yFg0ceTBaFfp9Jz5B2-117" style="edgeStyle=orthogonalEdgeStyle;rounded=1;orthogonalLoop=1;jettySize=auto;html=1;entryX=0;entryY=0.5;entryDx=0;entryDy=0;endArrow=block;endFill=0;" edge="1" parent="WIyWlLk6GJQsqaUBKTNV-1" source="41yFg0ceTBaFfp9Jz5B2-113" target="41yFg0ceTBaFfp9Jz5B2-22">
          <mxGeometry relative="1" as="geometry" />
        </mxCell>
        <mxCell id="41yFg0ceTBaFfp9Jz5B2-119" value="Si" style="edgeLabel;html=1;align=center;verticalAlign=middle;resizable=0;points=[];rounded=1;" vertex="1" connectable="0" parent="41yFg0ceTBaFfp9Jz5B2-117">
          <mxGeometry x="-0.1817" y="-1" relative="1" as="geometry">
            <mxPoint as="offset" />
          </mxGeometry>
        </mxCell>
        <mxCell id="41yFg0ceTBaFfp9Jz5B2-118" style="edgeStyle=orthogonalEdgeStyle;rounded=1;orthogonalLoop=1;jettySize=auto;html=1;exitX=0.5;exitY=1;exitDx=0;exitDy=0;entryX=0.5;entryY=0;entryDx=0;entryDy=0;endArrow=block;endFill=0;" edge="1" parent="WIyWlLk6GJQsqaUBKTNV-1" source="41yFg0ceTBaFfp9Jz5B2-113" target="41yFg0ceTBaFfp9Jz5B2-57">
          <mxGeometry relative="1" as="geometry" />
        </mxCell>
        <mxCell id="41yFg0ceTBaFfp9Jz5B2-120" value="No" style="edgeLabel;html=1;align=center;verticalAlign=middle;resizable=0;points=[];rounded=1;" vertex="1" connectable="0" parent="41yFg0ceTBaFfp9Jz5B2-118">
          <mxGeometry x="-0.019" y="1" relative="1" as="geometry">
            <mxPoint x="-1" y="-5" as="offset" />
          </mxGeometry>
        </mxCell>
        <mxCell id="41yFg0ceTBaFfp9Jz5B2-113" value="if encendido&lt;br&gt;&amp;nbsp;= true" style="rhombus;whiteSpace=wrap;html=1;fontSize=9;rounded=1;" vertex="1" parent="WIyWlLk6GJQsqaUBKTNV-1">
          <mxGeometry x="824" y="145" width="70" height="60" as="geometry" />
        </mxCell>
        <mxCell id="41yFg0ceTBaFfp9Jz5B2-127" style="edgeStyle=orthogonalEdgeStyle;rounded=1;orthogonalLoop=1;jettySize=auto;html=1;exitX=0;exitY=0.5;exitDx=0;exitDy=0;endArrow=block;endFill=0;" edge="1" parent="WIyWlLk6GJQsqaUBKTNV-1" source="41yFg0ceTBaFfp9Jz5B2-123">
          <mxGeometry relative="1" as="geometry">
            <mxPoint x="869" y="225" as="targetPoint" />
            <Array as="points">
              <mxPoint x="920" y="730" />
              <mxPoint x="920" y="225" />
            </Array>
          </mxGeometry>
        </mxCell>
        <mxCell id="41yFg0ceTBaFfp9Jz5B2-123" value="&lt;font style=&quot;font-size: 9px;&quot;&gt;Control de motores&lt;/font&gt;" style="whiteSpace=wrap;html=1;rounded=1;" vertex="1" parent="WIyWlLk6GJQsqaUBKTNV-1">
          <mxGeometry x="964" y="715" width="90" height="30" as="geometry" />
        </mxCell>
        <mxCell id="41yFg0ceTBaFfp9Jz5B2-142" value="" style="edgeStyle=orthogonalEdgeStyle;rounded=1;orthogonalLoop=1;jettySize=auto;html=1;fontSize=9;endArrow=block;endFill=0;textShadow=0;" edge="1" parent="WIyWlLk6GJQsqaUBKTNV-1" source="41yFg0ceTBaFfp9Jz5B2-130" target="41yFg0ceTBaFfp9Jz5B2-141">
          <mxGeometry relative="1" as="geometry" />
        </mxCell>
        <mxCell id="41yFg0ceTBaFfp9Jz5B2-147" value="No" style="edgeLabel;html=1;align=center;verticalAlign=middle;resizable=0;points=[];rounded=1;fontSize=9;textShadow=0;" vertex="1" connectable="0" parent="41yFg0ceTBaFfp9Jz5B2-142">
          <mxGeometry x="-0.2986" y="1" relative="1" as="geometry">
            <mxPoint as="offset" />
          </mxGeometry>
        </mxCell>
        <mxCell id="41yFg0ceTBaFfp9Jz5B2-211" value="" style="edgeStyle=orthogonalEdgeStyle;rounded=1;orthogonalLoop=1;jettySize=auto;html=1;endArrow=block;endFill=0;fontSize=9;textShadow=0;" edge="1" parent="WIyWlLk6GJQsqaUBKTNV-1" source="41yFg0ceTBaFfp9Jz5B2-130" target="41yFg0ceTBaFfp9Jz5B2-107">
          <mxGeometry relative="1" as="geometry" />
        </mxCell>
        <mxCell id="41yFg0ceTBaFfp9Jz5B2-212" value="Si" style="edgeLabel;html=1;align=center;verticalAlign=middle;resizable=0;points=[];rounded=1;fontSize=9;textShadow=0;" vertex="1" connectable="0" parent="41yFg0ceTBaFfp9Jz5B2-211">
          <mxGeometry x="-0.145" relative="1" as="geometry">
            <mxPoint x="-4" as="offset" />
          </mxGeometry>
        </mxCell>
        <mxCell id="41yFg0ceTBaFfp9Jz5B2-130" value="&lt;font style=&quot;font-size: 9px;&quot;&gt;if&amp;nbsp;BleStatus() = &lt;font style=&quot;font-size: 9px;&quot;&gt;BLE_CONNECTED&lt;/font&gt;&lt;/font&gt;" style="rhombus;whiteSpace=wrap;html=1;rounded=1;fontSize=9;textShadow=0;" vertex="1" parent="WIyWlLk6GJQsqaUBKTNV-1">
          <mxGeometry x="145" y="135" width="120" height="70" as="geometry" />
        </mxCell>
        <mxCell id="41yFg0ceTBaFfp9Jz5B2-144" value="" style="edgeStyle=orthogonalEdgeStyle;rounded=1;orthogonalLoop=1;jettySize=auto;html=1;fontSize=9;endArrow=block;endFill=0;textShadow=0;" edge="1" parent="WIyWlLk6GJQsqaUBKTNV-1" source="41yFg0ceTBaFfp9Jz5B2-141" target="41yFg0ceTBaFfp9Jz5B2-143">
          <mxGeometry relative="1" as="geometry" />
        </mxCell>
        <mxCell id="41yFg0ceTBaFfp9Jz5B2-148" value="No" style="edgeLabel;html=1;align=center;verticalAlign=middle;resizable=0;points=[];rounded=1;fontSize=9;textShadow=0;" vertex="1" connectable="0" parent="41yFg0ceTBaFfp9Jz5B2-144">
          <mxGeometry x="-0.3679" relative="1" as="geometry">
            <mxPoint as="offset" />
          </mxGeometry>
        </mxCell>
        <mxCell id="41yFg0ceTBaFfp9Jz5B2-150" value="" style="edgeStyle=orthogonalEdgeStyle;rounded=1;orthogonalLoop=1;jettySize=auto;html=1;fontSize=9;endArrow=block;endFill=0;textShadow=0;" edge="1" parent="WIyWlLk6GJQsqaUBKTNV-1" source="41yFg0ceTBaFfp9Jz5B2-141" target="41yFg0ceTBaFfp9Jz5B2-149">
          <mxGeometry relative="1" as="geometry" />
        </mxCell>
        <mxCell id="41yFg0ceTBaFfp9Jz5B2-159" value="Si" style="edgeLabel;html=1;align=center;verticalAlign=middle;resizable=0;points=[];rounded=1;fontSize=9;textShadow=0;" vertex="1" connectable="0" parent="41yFg0ceTBaFfp9Jz5B2-150">
          <mxGeometry x="-0.1649" y="-1" relative="1" as="geometry">
            <mxPoint x="-4" y="-1" as="offset" />
          </mxGeometry>
        </mxCell>
        <mxCell id="41yFg0ceTBaFfp9Jz5B2-141" value="&lt;font style=&quot;font-size: 9px;&quot;&gt;else if&amp;nbsp;BleStatus() = &lt;font style=&quot;font-size: 9px;&quot;&gt;BLE_DISCONNECTED&lt;/font&gt;&lt;/font&gt;" style="rhombus;whiteSpace=wrap;html=1;rounded=1;fontSize=9;textShadow=0;" vertex="1" parent="WIyWlLk6GJQsqaUBKTNV-1">
          <mxGeometry x="142.5" y="245" width="125" height="70" as="geometry" />
        </mxCell>
        <mxCell id="41yFg0ceTBaFfp9Jz5B2-152" value="" style="edgeStyle=orthogonalEdgeStyle;rounded=1;orthogonalLoop=1;jettySize=auto;html=1;fontSize=9;endArrow=block;endFill=0;textShadow=0;" edge="1" parent="WIyWlLk6GJQsqaUBKTNV-1" source="41yFg0ceTBaFfp9Jz5B2-143" target="41yFg0ceTBaFfp9Jz5B2-151">
          <mxGeometry relative="1" as="geometry" />
        </mxCell>
        <mxCell id="41yFg0ceTBaFfp9Jz5B2-157" value="Si" style="edgeLabel;html=1;align=center;verticalAlign=middle;resizable=0;points=[];rounded=1;fontSize=9;textShadow=0;" vertex="1" connectable="0" parent="41yFg0ceTBaFfp9Jz5B2-152">
          <mxGeometry x="-0.0893" y="1" relative="1" as="geometry">
            <mxPoint as="offset" />
          </mxGeometry>
        </mxCell>
        <mxCell id="41yFg0ceTBaFfp9Jz5B2-154" value="" style="edgeStyle=orthogonalEdgeStyle;rounded=1;orthogonalLoop=1;jettySize=auto;html=1;fontSize=9;endArrow=block;endFill=0;textShadow=0;" edge="1" parent="WIyWlLk6GJQsqaUBKTNV-1" source="41yFg0ceTBaFfp9Jz5B2-143" target="41yFg0ceTBaFfp9Jz5B2-153">
          <mxGeometry relative="1" as="geometry" />
        </mxCell>
        <mxCell id="41yFg0ceTBaFfp9Jz5B2-158" value="No" style="edgeLabel;html=1;align=center;verticalAlign=middle;resizable=0;points=[];rounded=1;fontSize=9;textShadow=0;" vertex="1" connectable="0" parent="41yFg0ceTBaFfp9Jz5B2-154">
          <mxGeometry x="-0.1754" y="-1" relative="1" as="geometry">
            <mxPoint as="offset" />
          </mxGeometry>
        </mxCell>
        <mxCell id="41yFg0ceTBaFfp9Jz5B2-143" value="&lt;font style=&quot;font-size: 9px;&quot;&gt;else if&amp;nbsp;&lt;br style=&quot;font-size: 9px;&quot;&gt;BleStatus() = &lt;font style=&quot;font-size: 9px;&quot;&gt;BLE_OFF&lt;/font&gt;&lt;/font&gt;" style="rhombus;whiteSpace=wrap;html=1;rounded=1;fontSize=9;textShadow=0;" vertex="1" parent="WIyWlLk6GJQsqaUBKTNV-1">
          <mxGeometry x="162.5" y="354.69" width="85" height="70" as="geometry" />
        </mxCell>
        <mxCell id="41yFg0ceTBaFfp9Jz5B2-162" value="" style="edgeStyle=orthogonalEdgeStyle;rounded=1;orthogonalLoop=1;jettySize=auto;html=1;fontSize=9;endArrow=block;endFill=0;textShadow=0;" edge="1" parent="WIyWlLk6GJQsqaUBKTNV-1" source="41yFg0ceTBaFfp9Jz5B2-145" target="41yFg0ceTBaFfp9Jz5B2-161">
          <mxGeometry relative="1" as="geometry" />
        </mxCell>
        <mxCell id="41yFg0ceTBaFfp9Jz5B2-145" value="&lt;font style=&quot;font-size: 9px;&quot;&gt;Leer data&lt;/font&gt;" style="whiteSpace=wrap;html=1;rounded=1;fontSize=9;textShadow=0;" vertex="1" parent="WIyWlLk6GJQsqaUBKTNV-1">
          <mxGeometry x="440" y="156.25" width="50" height="27.5" as="geometry" />
        </mxCell>
        <mxCell id="41yFg0ceTBaFfp9Jz5B2-223" style="edgeStyle=orthogonalEdgeStyle;rounded=1;orthogonalLoop=1;jettySize=auto;html=1;exitX=1;exitY=0.5;exitDx=0;exitDy=0;endArrow=block;endFill=0;textShadow=0;" edge="1" parent="WIyWlLk6GJQsqaUBKTNV-1" source="41yFg0ceTBaFfp9Jz5B2-149">
          <mxGeometry relative="1" as="geometry">
            <mxPoint x="220" y="450" as="targetPoint" />
            <Array as="points">
              <mxPoint x="391" y="280" />
              <mxPoint x="391" y="450" />
              <mxPoint x="220" y="450" />
            </Array>
          </mxGeometry>
        </mxCell>
        <mxCell id="41yFg0ceTBaFfp9Jz5B2-149" value="toggle led2" style="whiteSpace=wrap;html=1;rounded=1;fontSize=9;textShadow=0;" vertex="1" parent="WIyWlLk6GJQsqaUBKTNV-1">
          <mxGeometry x="300" y="264.53000000000003" width="70" height="30.94" as="geometry" />
        </mxCell>
        <mxCell id="41yFg0ceTBaFfp9Jz5B2-224" style="edgeStyle=orthogonalEdgeStyle;rounded=1;orthogonalLoop=1;jettySize=auto;html=1;exitX=1;exitY=0.5;exitDx=0;exitDy=0;endArrow=none;endFill=0;textShadow=0;" edge="1" parent="WIyWlLk6GJQsqaUBKTNV-1" source="41yFg0ceTBaFfp9Jz5B2-151">
          <mxGeometry relative="1" as="geometry">
            <mxPoint x="390" y="389.7777777777777" as="targetPoint" />
          </mxGeometry>
        </mxCell>
        <mxCell id="41yFg0ceTBaFfp9Jz5B2-151" value="Enciende led3" style="whiteSpace=wrap;html=1;rounded=1;fontSize=9;textShadow=0;" vertex="1" parent="WIyWlLk6GJQsqaUBKTNV-1">
          <mxGeometry x="300" y="375.01" width="70" height="29.37" as="geometry" />
        </mxCell>
        <mxCell id="41yFg0ceTBaFfp9Jz5B2-160" style="edgeStyle=orthogonalEdgeStyle;rounded=1;orthogonalLoop=1;jettySize=auto;html=1;exitX=0;exitY=0.5;exitDx=0;exitDy=0;entryX=0;entryY=0.5;entryDx=0;entryDy=0;endArrow=block;endFill=0;fontSize=9;textShadow=0;" edge="1" parent="WIyWlLk6GJQsqaUBKTNV-1" source="41yFg0ceTBaFfp9Jz5B2-153" target="41yFg0ceTBaFfp9Jz5B2-130">
          <mxGeometry relative="1" as="geometry">
            <mxPoint x="100" y="165" as="targetPoint" />
            <Array as="points">
              <mxPoint x="120" y="505" />
              <mxPoint x="120" y="170" />
            </Array>
          </mxGeometry>
        </mxCell>
        <mxCell id="41yFg0ceTBaFfp9Jz5B2-153" value="vTaskDelay" style="whiteSpace=wrap;html=1;rounded=1;fontSize=9;textShadow=0;" vertex="1" parent="WIyWlLk6GJQsqaUBKTNV-1">
          <mxGeometry x="158.75" y="490" width="92.5" height="30" as="geometry" />
        </mxCell>
        <mxCell id="41yFg0ceTBaFfp9Jz5B2-170" value="" style="edgeStyle=orthogonalEdgeStyle;rounded=1;orthogonalLoop=1;jettySize=auto;html=1;endArrow=block;endFill=0;fontSize=9;textShadow=0;" edge="1" parent="WIyWlLk6GJQsqaUBKTNV-1" source="41yFg0ceTBaFfp9Jz5B2-161" target="41yFg0ceTBaFfp9Jz5B2-169">
          <mxGeometry relative="1" as="geometry" />
        </mxCell>
        <mxCell id="41yFg0ceTBaFfp9Jz5B2-181" value="Si" style="edgeLabel;html=1;align=center;verticalAlign=middle;resizable=0;points=[];rounded=1;fontSize=9;textShadow=0;" vertex="1" connectable="0" parent="41yFg0ceTBaFfp9Jz5B2-170">
          <mxGeometry x="-0.1674" y="1" relative="1" as="geometry">
            <mxPoint as="offset" />
          </mxGeometry>
        </mxCell>
        <mxCell id="41yFg0ceTBaFfp9Jz5B2-190" value="" style="edgeStyle=orthogonalEdgeStyle;rounded=1;orthogonalLoop=1;jettySize=auto;html=1;endArrow=block;endFill=0;fontSize=9;textShadow=0;" edge="1" parent="WIyWlLk6GJQsqaUBKTNV-1" source="41yFg0ceTBaFfp9Jz5B2-161" target="41yFg0ceTBaFfp9Jz5B2-189">
          <mxGeometry relative="1" as="geometry" />
        </mxCell>
        <mxCell id="41yFg0ceTBaFfp9Jz5B2-191" value="No" style="edgeLabel;html=1;align=center;verticalAlign=middle;resizable=0;points=[];rounded=1;fontSize=9;textShadow=0;" vertex="1" connectable="0" parent="41yFg0ceTBaFfp9Jz5B2-190">
          <mxGeometry x="-0.1968" y="2" relative="1" as="geometry">
            <mxPoint as="offset" />
          </mxGeometry>
        </mxCell>
        <mxCell id="41yFg0ceTBaFfp9Jz5B2-161" value="if data = O" style="rhombus;whiteSpace=wrap;html=1;rounded=1;fontSize=9;textShadow=0;" vertex="1" parent="WIyWlLk6GJQsqaUBKTNV-1">
          <mxGeometry x="437.5" y="213.75" width="55" height="60" as="geometry" />
        </mxCell>
        <mxCell id="41yFg0ceTBaFfp9Jz5B2-206" style="edgeStyle=orthogonalEdgeStyle;rounded=1;orthogonalLoop=1;jettySize=auto;html=1;exitX=1;exitY=0.5;exitDx=0;exitDy=0;endArrow=block;endFill=0;fontSize=9;textShadow=0;" edge="1" parent="WIyWlLk6GJQsqaUBKTNV-1" source="41yFg0ceTBaFfp9Jz5B2-169">
          <mxGeometry relative="1" as="geometry">
            <mxPoint x="480" y="595" as="targetPoint" />
            <Array as="points">
              <mxPoint x="661" y="245" />
              <mxPoint x="661" y="595" />
              <mxPoint x="480" y="595" />
            </Array>
          </mxGeometry>
        </mxCell>
        <mxCell id="41yFg0ceTBaFfp9Jz5B2-169" value="encendido = true" style="whiteSpace=wrap;html=1;fontSize=9;rounded=1;textShadow=0;" vertex="1" parent="WIyWlLk6GJQsqaUBKTNV-1">
          <mxGeometry x="531.25" y="235" width="78.75" height="20" as="geometry" />
        </mxCell>
        <mxCell id="41yFg0ceTBaFfp9Jz5B2-222" style="edgeStyle=orthogonalEdgeStyle;rounded=1;orthogonalLoop=1;jettySize=auto;html=1;exitX=1;exitY=0.5;exitDx=0;exitDy=0;endArrow=none;endFill=0;textShadow=0;" edge="1" parent="WIyWlLk6GJQsqaUBKTNV-1" source="41yFg0ceTBaFfp9Jz5B2-171">
          <mxGeometry relative="1" as="geometry">
            <mxPoint x="660" y="344.82608695652175" as="targetPoint" />
          </mxGeometry>
        </mxCell>
        <mxCell id="41yFg0ceTBaFfp9Jz5B2-171" value="encendido = false" style="whiteSpace=wrap;html=1;fontSize=9;rounded=1;textShadow=0;" vertex="1" parent="WIyWlLk6GJQsqaUBKTNV-1">
          <mxGeometry x="528.75" y="334.37" width="81.25" height="20.63" as="geometry" />
        </mxCell>
        <mxCell id="41yFg0ceTBaFfp9Jz5B2-220" style="edgeStyle=orthogonalEdgeStyle;rounded=1;orthogonalLoop=1;jettySize=auto;html=1;exitX=1;exitY=0.5;exitDx=0;exitDy=0;endArrow=none;endFill=0;textShadow=0;" edge="1" parent="WIyWlLk6GJQsqaUBKTNV-1" source="41yFg0ceTBaFfp9Jz5B2-173">
          <mxGeometry relative="1" as="geometry">
            <mxPoint x="660" y="444.82608695652175" as="targetPoint" />
          </mxGeometry>
        </mxCell>
        <mxCell id="41yFg0ceTBaFfp9Jz5B2-173" value="pausa = true" style="rounded=1;whiteSpace=wrap;html=1;fontSize=9;textShadow=0;" vertex="1" parent="WIyWlLk6GJQsqaUBKTNV-1">
          <mxGeometry x="531.25" y="433.9" width="78.75" height="21.1" as="geometry" />
        </mxCell>
        <mxCell id="41yFg0ceTBaFfp9Jz5B2-221" style="edgeStyle=orthogonalEdgeStyle;rounded=1;orthogonalLoop=1;jettySize=auto;html=1;endArrow=none;endFill=0;textShadow=0;" edge="1" parent="WIyWlLk6GJQsqaUBKTNV-1" source="41yFg0ceTBaFfp9Jz5B2-175">
          <mxGeometry relative="1" as="geometry">
            <mxPoint x="660" y="550.0049999999999" as="targetPoint" />
          </mxGeometry>
        </mxCell>
        <mxCell id="41yFg0ceTBaFfp9Jz5B2-175" value="pausa = false" style="whiteSpace=wrap;html=1;fontSize=9;rounded=1;textShadow=0;" vertex="1" parent="WIyWlLk6GJQsqaUBKTNV-1">
          <mxGeometry x="531.25" y="540.94" width="81.25" height="18.13" as="geometry" />
        </mxCell>
        <mxCell id="41yFg0ceTBaFfp9Jz5B2-226" style="edgeStyle=orthogonalEdgeStyle;rounded=1;orthogonalLoop=1;jettySize=auto;html=1;exitX=0;exitY=0.5;exitDx=0;exitDy=0;endArrow=none;endFill=0;textShadow=0;" edge="1" parent="WIyWlLk6GJQsqaUBKTNV-1" source="41yFg0ceTBaFfp9Jz5B2-179">
          <mxGeometry relative="1" as="geometry">
            <mxPoint x="370" y="450" as="targetPoint" />
            <Array as="points">
              <mxPoint x="390" y="655" />
              <mxPoint x="390" y="450" />
            </Array>
          </mxGeometry>
        </mxCell>
        <mxCell id="41yFg0ceTBaFfp9Jz5B2-179" value="Enviar mensaje y nivel de baterÃ­a a la aplicaciÃ³n mÃ³vil" style="whiteSpace=wrap;html=1;fontSize=9;rounded=1;textShadow=0;" vertex="1" parent="WIyWlLk6GJQsqaUBKTNV-1">
          <mxGeometry x="405" y="625" width="120" height="60" as="geometry" />
        </mxCell>
        <mxCell id="41yFg0ceTBaFfp9Jz5B2-192" value="" style="edgeStyle=orthogonalEdgeStyle;rounded=1;orthogonalLoop=1;jettySize=auto;html=1;endArrow=block;endFill=0;fontSize=9;textShadow=0;" edge="1" parent="WIyWlLk6GJQsqaUBKTNV-1" source="41yFg0ceTBaFfp9Jz5B2-189" target="41yFg0ceTBaFfp9Jz5B2-171">
          <mxGeometry relative="1" as="geometry" />
        </mxCell>
        <mxCell id="41yFg0ceTBaFfp9Jz5B2-193" value="Si" style="edgeLabel;html=1;align=center;verticalAlign=middle;resizable=0;points=[];rounded=1;fontSize=9;textShadow=0;" vertex="1" connectable="0" parent="41yFg0ceTBaFfp9Jz5B2-192">
          <mxGeometry x="-0.3827" y="1" relative="1" as="geometry">
            <mxPoint x="6" as="offset" />
          </mxGeometry>
        </mxCell>
        <mxCell id="41yFg0ceTBaFfp9Jz5B2-189" value="else if&lt;br style=&quot;font-size: 9px;&quot;&gt;data = o" style="rhombus;whiteSpace=wrap;html=1;rounded=1;fontSize=9;textShadow=0;" vertex="1" parent="WIyWlLk6GJQsqaUBKTNV-1">
          <mxGeometry x="437.5" y="315" width="55" height="60" as="geometry" />
        </mxCell>
        <mxCell id="41yFg0ceTBaFfp9Jz5B2-197" value="" style="edgeStyle=orthogonalEdgeStyle;rounded=1;orthogonalLoop=1;jettySize=auto;html=1;endArrow=block;endFill=0;fontSize=9;textShadow=0;" edge="1" parent="WIyWlLk6GJQsqaUBKTNV-1" source="41yFg0ceTBaFfp9Jz5B2-194" target="41yFg0ceTBaFfp9Jz5B2-173">
          <mxGeometry relative="1" as="geometry" />
        </mxCell>
        <mxCell id="41yFg0ceTBaFfp9Jz5B2-198" value="Si" style="edgeLabel;html=1;align=center;verticalAlign=middle;resizable=0;points=[];rounded=1;fontSize=9;textShadow=0;" vertex="1" connectable="0" parent="41yFg0ceTBaFfp9Jz5B2-197">
          <mxGeometry x="-0.0054" relative="1" as="geometry">
            <mxPoint as="offset" />
          </mxGeometry>
        </mxCell>
        <mxCell id="41yFg0ceTBaFfp9Jz5B2-202" value="" style="edgeStyle=orthogonalEdgeStyle;rounded=1;orthogonalLoop=1;jettySize=auto;html=1;endArrow=block;endFill=0;fontSize=9;textShadow=0;" edge="1" parent="WIyWlLk6GJQsqaUBKTNV-1" source="41yFg0ceTBaFfp9Jz5B2-199" target="41yFg0ceTBaFfp9Jz5B2-175">
          <mxGeometry relative="1" as="geometry" />
        </mxCell>
        <mxCell id="41yFg0ceTBaFfp9Jz5B2-203" value="Si" style="edgeLabel;html=1;align=center;verticalAlign=middle;resizable=0;points=[];rounded=1;fontSize=9;textShadow=0;" vertex="1" connectable="0" parent="41yFg0ceTBaFfp9Jz5B2-202">
          <mxGeometry x="-0.2276" y="1" relative="1" as="geometry">
            <mxPoint as="offset" />
          </mxGeometry>
        </mxCell>
        <mxCell id="41yFg0ceTBaFfp9Jz5B2-204" value="" style="edgeStyle=orthogonalEdgeStyle;rounded=1;orthogonalLoop=1;jettySize=auto;html=1;endArrow=block;endFill=0;fontSize=9;textShadow=0;" edge="1" parent="WIyWlLk6GJQsqaUBKTNV-1" source="41yFg0ceTBaFfp9Jz5B2-199" target="41yFg0ceTBaFfp9Jz5B2-179">
          <mxGeometry relative="1" as="geometry" />
        </mxCell>
        <mxCell id="41yFg0ceTBaFfp9Jz5B2-205" value="No" style="edgeLabel;html=1;align=center;verticalAlign=middle;resizable=0;points=[];rounded=1;fontSize=9;textShadow=0;" vertex="1" connectable="0" parent="41yFg0ceTBaFfp9Jz5B2-204">
          <mxGeometry x="-0.2669" y="-1" relative="1" as="geometry">
            <mxPoint as="offset" />
          </mxGeometry>
        </mxCell>
        <mxCell id="41yFg0ceTBaFfp9Jz5B2-199" value="else if&lt;br style=&quot;font-size: 9px;&quot;&gt;data = p" style="rhombus;whiteSpace=wrap;html=1;rounded=1;fontSize=9;textShadow=0;" vertex="1" parent="WIyWlLk6GJQsqaUBKTNV-1">
          <mxGeometry x="437.5" y="520" width="55" height="60" as="geometry" />
        </mxCell>
        <mxCell id="41yFg0ceTBaFfp9Jz5B2-214" value="" style="edgeStyle=orthogonalEdgeStyle;rounded=1;orthogonalLoop=1;jettySize=auto;html=1;endArrow=block;endFill=0;fontSize=9;textShadow=0;" edge="1" parent="WIyWlLk6GJQsqaUBKTNV-1" source="41yFg0ceTBaFfp9Jz5B2-189" target="41yFg0ceTBaFfp9Jz5B2-194">
          <mxGeometry relative="1" as="geometry">
            <mxPoint x="465" y="375" as="sourcePoint" />
            <mxPoint x="465" y="449" as="targetPoint" />
          </mxGeometry>
        </mxCell>
        <mxCell id="41yFg0ceTBaFfp9Jz5B2-215" value="No" style="edgeLabel;html=1;align=center;verticalAlign=middle;resizable=0;points=[];rounded=1;fontSize=9;textShadow=0;" vertex="1" connectable="0" parent="41yFg0ceTBaFfp9Jz5B2-214">
          <mxGeometry x="-0.2683" relative="1" as="geometry">
            <mxPoint as="offset" />
          </mxGeometry>
        </mxCell>
        <mxCell id="41yFg0ceTBaFfp9Jz5B2-216" value="" style="edgeStyle=orthogonalEdgeStyle;rounded=1;orthogonalLoop=1;jettySize=auto;html=1;endArrow=block;endFill=0;textShadow=0;" edge="1" parent="WIyWlLk6GJQsqaUBKTNV-1" source="41yFg0ceTBaFfp9Jz5B2-194" target="41yFg0ceTBaFfp9Jz5B2-199">
          <mxGeometry relative="1" as="geometry" />
        </mxCell>
        <mxCell id="41yFg0ceTBaFfp9Jz5B2-217" value="No" style="edgeLabel;html=1;align=center;verticalAlign=middle;resizable=0;points=[];rounded=1;textShadow=0;" vertex="1" connectable="0" parent="41yFg0ceTBaFfp9Jz5B2-216">
          <mxGeometry x="-0.4284" relative="1" as="geometry">
            <mxPoint as="offset" />
          </mxGeometry>
        </mxCell>
        <mxCell id="41yFg0ceTBaFfp9Jz5B2-194" value="else if&lt;br style=&quot;font-size: 9px;&quot;&gt;data = P" style="rhombus;whiteSpace=wrap;html=1;rounded=1;fontSize=9;textShadow=0;" vertex="1" parent="WIyWlLk6GJQsqaUBKTNV-1">
          <mxGeometry x="437.5" y="415" width="55" height="60" as="geometry" />
        </mxCell>
      </root>
    </mxGraphModel>
  </diagram>
</mxfile>
